<svg xmlns="http://www.w3.org/2000/svg" xmlns:xlink="http://www.w3.org/1999/xlink" width="500" zoomAndPan="magnify" viewBox="0 0 375 374.999991" height="500" preserveAspectRatio="xMidYMid meet" version="1.0"><defs><clipPath id="36dc18cf8f"><path d="M 48.429688 0 L 326.679688 0 L 326.679688 360 L 48.429688 360 Z M 48.429688 0 " clip-rule="nonzero"/></clipPath></defs><path fill="#fefefe" d="M 146.40625 344.789062 L 146.40625 309.527344 L 130.730469 309.527344 L 130.730469 278.183594 L 115.054688 278.183594 L 115.054688 246.839844 L 99.378906 246.839844 L 99.378906 211.574219 L 79.78125 211.574219 L 79.78125 195.902344 L 64.105469 195.902344 L 64.105469 164.558594 L 99.378906 164.558594 L 99.378906 180.230469 L 115.054688 180.230469 L 115.054688 227.246094 L 130.730469 227.246094 L 130.730469 15.671875 L 162.082031 15.671875 L 162.082031 164.558594 L 177.757812 164.558594 L 177.757812 97.953125 L 213.03125 97.953125 L 213.03125 164.558594 L 228.707031 164.558594 L 228.707031 113.625 L 260.058594 113.625 L 260.058594 180.230469 L 275.734375 180.230469 L 275.734375 129.296875 L 295.332031 129.296875 L 295.332031 148.886719 L 311.007812 148.886719 L 311.007812 262.511719 L 295.332031 262.511719 L 295.332031 309.527344 L 275.734375 309.527344 L 275.734375 344.789062 Z M 146.40625 344.789062 " fill-opacity="1" fill-rule="nonzero"/><g clip-path="url(#36dc18cf8f)"><path fill="#000000" d="M 130.730469 360.460938 L 130.730469 309.527344 L 115.054688 309.527344 L 115.054688 278.183594 L 99.378906 278.183594 L 99.378906 246.839844 L 79.78125 246.839844 L 79.78125 211.574219 L 64.105469 211.574219 L 64.105469 195.902344 L 48.429688 195.902344 L 48.429688 148.886719 L 99.378906 148.886719 L 99.378906 164.558594 L 115.054688 164.558594 L 115.054688 15.671875 L 130.730469 15.671875 L 130.730469 0 L 162.082031 0 L 162.082031 15.671875 L 177.757812 15.671875 L 177.757812 82.28125 L 213.03125 82.28125 L 213.03125 97.953125 L 260.058594 97.953125 L 260.058594 113.625 L 295.332031 113.625 L 295.332031 129.296875 L 311.007812 129.296875 L 311.007812 148.886719 L 326.683594 148.886719 L 326.683594 262.511719 L 311.007812 262.511719 L 311.007812 309.527344 L 295.332031 309.527344 L 295.332031 360.460938 Z M 275.734375 344.789062 L 275.734375 309.527344 L 295.332031 309.527344 L 295.332031 262.511719 L 311.007812 262.511719 L 311.007812 148.886719 L 295.332031 148.886719 L 295.332031 129.296875 L 275.734375 129.296875 L 275.734375 180.230469 L 260.058594 180.230469 L 260.058594 113.625 L 228.707031 113.625 L 228.707031 164.558594 L 213.03125 164.558594 L 213.03125 97.953125 L 177.757812 97.953125 L 177.757812 164.558594 L 162.082031 164.558594 L 162.082031 15.671875 L 130.730469 15.671875 L 130.730469 227.246094 L 115.054688 227.246094 L 115.054688 180.230469 L 99.378906 180.230469 L 99.378906 164.558594 L 64.105469 164.558594 L 64.105469 195.902344 L 79.78125 195.902344 L 79.78125 211.574219 L 99.378906 211.574219 L 99.378906 246.839844 L 115.054688 246.839844 L 115.054688 278.183594 L 130.730469 278.183594 L 130.730469 309.527344 L 146.40625 309.527344 L 146.40625 344.789062 Z M 275.734375 344.789062 " fill-opacity="1" fill-rule="nonzero"/></g></svg>